<?xml version="1.0" standalone="no"?>
<!DOCTYPE svg PUBLIC "-//W3C//DTD SVG 20010904//EN"
 "http://www.w3.org/TR/2001/REC-SVG-20010904/DTD/svg10.dtd">
<svg version="1.0" xmlns="http://www.w3.org/2000/svg"
 width="500.000000pt" height="500.000000pt" viewBox="0 0 500.000000 500.000000"
 preserveAspectRatio="xMidYMid meet">

<g transform="translate(0.000000,500.000000) scale(0.100000,-0.100000)"
fill="#000000" stroke="none">
<path d="M1972 3200 c-40 -11 -111 -34 -157 -53 -78 -32 -272 -137 -323 -176
l-24 -17 234 -186 233 -185 65 52 c209 166 399 256 506 240 95 -14 139 -45
242 -174 37 -47 84 -98 105 -115 36 -29 45 -31 115 -31 64 0 87 5 135 28 67
33 189 122 265 193 l53 49 -123 92 -122 91 -69 -63 c-115 -107 -199 -132 -298
-88 -25 11 -94 64 -154 117 -167 148 -250 201 -362 230 -84 22 -229 20 -321
-4z m196 -8 c3 -10 -4 -13 -24 -10 -15 2 -29 9 -32 16 -3 10 4 13 24 10 15 -2
29 -9 32 -16z m-95 -9 c-2 -9 15 -13 60 -15 39 -1 49 -3 27 -5 -59 -8 -140 6
-140 23 0 11 8 14 28 12 15 -2 26 -8 25 -15z m171 2 c3 -9 0 -15 -8 -15 -7 0
-19 7 -26 15 -10 12 -9 15 8 15 11 0 22 -7 26 -15z m-260 -14 c7 -11 -22 -23
-35 -15 -5 3 -9 9 -9 15 0 12 37 12 44 0z m345 -5 c9 -11 8 -15 -5 -20 -9 -4
-19 -4 -22 -1 -3 3 0 5 8 5 10 0 10 3 0 15 -7 8 -8 15 -2 15 5 0 15 -6 21 -14z
m-424 -16 c9 -14 -45 -34 -58 -21 -7 7 -2 14 14 20 32 13 37 13 44 1z m125
-10 c0 -5 -7 -7 -15 -4 -16 7 -130 -28 -188 -58 -24 -12 -35 -23 -30 -31 4 -7
-1 -5 -11 3 -17 14 -15 16 35 39 68 30 192 70 202 64 4 -2 7 -8 7 -13z m237
14 c-3 -3 -12 -4 -19 -1 -8 3 -5 6 6 6 11 1 17 -2 13 -5z m147 -23 c16 -17 16
-19 0 -25 -10 -4 -22 -2 -28 4 -8 8 -5 9 9 4 20 -7 20 -7 1 14 -11 12 -15 22
-9 22 5 0 18 -8 27 -19z m-59 -1 c3 -6 -1 -7 -9 -4 -18 7 -21 14 -7 14 6 0 13
-4 16 -10z m-540 -20 c3 -5 -6 -12 -20 -16 -29 -7 -41 -1 -30 15 8 14 42 14
50 1z m708 -54 c3 -8 -3 -12 -16 -11 -12 2 -21 7 -20 13 1 5 -7 18 -17 27 -11
10 -20 22 -20 27 0 12 67 -39 73 -56z m-368 -36 c38 -38 67 -70 64 -70 -2 0
-36 32 -74 70 -38 39 -67 70 -64 70 2 0 36 -31 74 -70z m-431 51 c6 -10 -39
-32 -48 -24 -8 9 14 33 30 33 7 0 15 -4 18 -9z m-85 -54 c-41 -31 -111 -67
-120 -61 -7 4 11 21 47 44 35 23 63 34 68 29 5 -5 8 -10 5 -12z m971 -31 c0
11 31 -19 41 -40 8 -16 4 -15 -14 6 -26 28 -46 27 -25 -1 7 -9 0 -5 -14 8 -15
13 -26 26 -25 30 0 3 -4 17 -12 31 -10 21 -8 20 18 -8 17 -18 31 -29 31 -26z
m-755 14 c10 -11 16 -20 13 -20 -3 0 -13 9 -23 20 -10 11 -16 20 -13 20 3 0
13 -9 23 -20z m659 -29 c14 -15 15 -21 4 -27 -7 -4 -10 -3 -5 1 4 5 0 17 -10
27 -9 10 -14 18 -11 18 3 0 13 -9 22 -19z m669 -5 c4 -10 1 -13 -9 -9 -15 6
-19 23 -5 23 5 0 11 -7 14 -14z m-1258 -26 c10 -11 16 -20 13 -20 -3 0 -13 9
-23 20 -10 11 -16 20 -13 20 3 0 13 -9 23 -20z m538 3 c-7 -2 -21 -2 -30 0
-10 3 -4 5 12 5 17 0 24 -2 18 -5z m-193 -32 c0 -8 -176 -111 -190 -111 -4 0
-15 10 -26 23 l-19 22 23 -20 c21 -17 26 -18 45 -5 12 8 52 30 89 50 65 34 67
37 50 54 -16 18 -16 18 6 7 12 -7 22 -16 22 -20z m97 23 c-3 -3 -12 -4 -19 -1
-8 3 -5 6 6 6 11 1 17 -2 13 -5z m773 -4 c0 -5 -5 -10 -11 -10 -5 0 -7 5 -4
10 3 6 8 10 11 10 2 0 4 -4 4 -10z m-704 -11 c10 -17 -13 -36 -27 -22 -12 12
-4 33 11 33 5 0 12 -5 16 -11z m74 -4 c20 -24 5 -28 -21 -6 -19 16 -20 20 -8
21 9 0 22 -7 29 -15z m-929 -12 c13 -16 12 -17 -3 -4 -10 7 -18 15 -18 17 0 8
8 3 21 -13z m1093 1 c3 -7 2 -13 -2 -11 -4 1 -7 -2 -7 -8 0 -5 5 -9 12 -9 7 1
12 -1 11 -5 -2 -17 3 -32 10 -28 4 3 15 -6 26 -20 18 -24 18 -25 0 -15 -24 13
-91 82 -80 82 5 0 4 6 -2 13 -8 10 -6 13 8 14 10 1 21 -5 24 -13z m27 -1 c13
-16 12 -17 -3 -4 -17 13 -22 21 -14 21 2 0 10 -8 17 -17z m-328 -7 c7 -18 -29
-28 -43 -12 -5 7 -7 16 -3 19 11 12 41 7 46 -7z m228 -12 l24 -26 -27 12 c-15
7 -29 19 -32 26 -8 22 8 16 35 -12z m-606 -4 c10 -11 16 -20 13 -20 -3 0 -13
9 -23 20 -10 11 -16 20 -13 20 3 0 13 -9 23 -20z m1100 10 c-3 -5 -11 -10 -16
-10 -6 0 -7 5 -4 10 3 6 11 10 16 10 6 0 7 -4 4 -10z m-788 -17 c3 -7 -6 -17
-18 -23 -29 -16 -48 8 -22 28 19 14 35 12 40 -5z m467 -22 c20 -21 24 -31 15
-36 -8 -6 -10 -4 -5 4 5 8 3 11 -6 9 -7 -2 -15 2 -17 7 -2 6 -7 18 -12 28 -14
24 -7 21 25 -12z m-114 -11 c12 -16 19 -30 16 -30 -2 0 -14 14 -26 30 -12 17
-19 30 -16 30 2 0 14 -13 26 -30z m385 10 c-3 -5 -11 -10 -16 -10 -6 0 -7 5
-4 10 3 6 11 10 16 10 6 0 7 -4 4 -10z m-818 -17 c6 -18 -37 -37 -51 -23 -8 8
-6 15 9 26 21 15 37 14 42 -3z m627 -22 c3 -5 -1 -12 -10 -15 -8 -3 -13 -2
-10 3 3 5 -1 11 -9 15 -8 3 -15 10 -15 16 0 12 34 -3 44 -19z m143 5 c0 -8 -6
-12 -14 -9 -7 3 -13 9 -13 14 0 5 6 9 13 9 8 0 14 -6 14 -14z m382 -7 c-16
-10 -23 -4 -14 10 3 6 11 8 17 5 6 -4 5 -9 -3 -15z m-442 -5 c2 -6 -2 -16 -9
-22 -10 -8 -16 -5 -24 12 -9 20 -8 23 9 22 11 -1 22 -6 24 -12z m-204 -43 c27
-46 14 -38 -18 12 -16 23 -22 37 -14 30 8 -6 22 -25 32 -42z m-593 15 c0 -7
-11 -18 -24 -24 -33 -15 -44 11 -14 32 23 16 38 13 38 -8z m755 4 c3 -6 -1 -7
-9 -4 -18 7 -21 14 -7 14 6 0 13 -4 16 -10z m440 -10 c-3 -5 -11 -10 -16 -10
-6 0 -7 5 -4 10 3 6 11 10 16 10 6 0 7 -4 4 -10z m-1278 -47 c2 -5 -8 -18 -23
-28 -22 -14 -28 -15 -35 -4 -6 10 -2 20 13 32 22 18 39 18 45 0z m1233 13 c0
-3 -4 -8 -10 -11 -5 -3 -10 -1 -10 4 0 6 5 11 10 11 6 0 10 -2 10 -4z m-50
-36 c0 -5 -5 -10 -11 -10 -5 0 -7 5 -4 10 3 6 8 10 11 10 2 0 4 -4 4 -10z
m-1290 -3 c0 -2 -12 -14 -27 -28 l-28 -24 24 28 c23 25 31 32 31 24z m-79 -24
c13 -16 12 -17 -3 -4 -17 13 -22 21 -14 21 2 0 10 -8 17 -17z m972 -42 c28
-48 12 -37 -24 17 -18 26 -24 39 -13 30 10 -9 27 -30 37 -47z m-866 32 c5 -14
-34 -36 -48 -27 -7 4 -4 13 7 25 18 20 35 21 41 2z m1218 -3 c-3 -5 -11 -10
-16 -10 -6 0 -7 5 -4 10 3 6 11 10 16 10 6 0 7 -4 4 -10z m-63 -42 c-6 -6 -15
-8 -19 -4 -4 4 -1 11 7 16 19 12 27 3 12 -12z m-95 -1 c2 -3 -8 -4 -22 -4 -14
0 -25 3 -25 8 0 7 38 4 47 -4z m-117 -31 c10 -13 10 -16 -3 -16 -8 0 -22 12
-32 26 -16 24 -16 25 3 15 10 -5 24 -17 32 -25z m37 28 c-3 -3 -12 -4 -19 -1
-8 3 -5 6 6 6 11 1 17 -2 13 -5z m108 -24 c-3 -5 -13 -10 -21 -10 -8 0 -14 5
-14 10 0 6 9 10 21 10 11 0 17 -4 14 -10z m-70 -9 c10 -18 -17 -23 -33 -7 -15
15 -15 16 5 16 12 0 24 -4 28 -9z"/>
<path d="M1686 2464 c-22 -21 -20 -77 2 -97 42 -38 112 -6 112 51 0 16 -8 36
-18 45 -23 21 -76 22 -96 1z"/>
<path d="M3896 2458 c-34 -48 -4 -108 52 -108 42 0 67 32 63 82 -3 48 -87 67
-115 26z"/>
<path d="M385 2220 l0 -240 48 0 c58 0 87 14 87 41 0 12 -20 58 -45 104 -47
86 -72 176 -61 219 15 60 38 23 102 -167 25 -73 49 -136 54 -141 13 -13 25 19
59 151 35 141 57 191 74 174 16 -16 23 -311 8 -351 l-10 -30 72 0 72 0 0 240
0 240 -68 0 c-38 0 -77 -5 -87 -10 -13 -7 -29 -41 -46 -95 -14 -47 -28 -85
-30 -85 -2 0 -15 38 -29 85 -17 54 -33 89 -45 95 -10 5 -49 10 -87 10 l-68 0
0 -240z"/>
<path d="M2160 2445 c-21 -26 -15 -67 14 -90 18 -14 25 -27 20 -38 -6 -18 12
-23 32 -9 34 23 46 109 18 136 -20 20 -68 21 -84 1z"/>
<path d="M2715 2220 l0 -240 48 0 c58 0 87 14 87 41 0 12 -20 58 -45 104 -47
86 -72 176 -61 219 15 60 38 23 102 -167 25 -73 49 -136 54 -141 13 -13 25 19
59 151 35 141 57 191 74 174 16 -16 22 -311 8 -352 l-10 -29 72 0 72 0 0 240
0 240 -68 0 c-38 0 -77 -5 -87 -10 -13 -7 -29 -41 -46 -95 -14 -47 -28 -85
-30 -85 -2 0 -15 38 -29 85 -17 54 -33 89 -45 95 -10 5 -49 10 -87 10 l-68 0
0 -240z"/>
<path d="M1585 2390 c-39 -44 -106 -79 -136 -73 -35 7 -86 -13 -100 -38 -13
-26 -27 -24 -31 4 -3 20 -9 22 -63 25 l-60 3 4 -126 c3 -124 -4 -203 -17 -190
-4 4 -9 60 -12 125 -5 109 -7 121 -30 145 -50 54 -142 71 -217 40 -43 -18 -53
-30 -53 -67 0 -45 18 -42 68 11 51 54 71 61 96 35 32 -31 20 -50 -46 -74 -78
-28 -123 -73 -133 -131 -6 -33 -3 -47 12 -68 27 -35 90 -41 138 -11 l34 21 11
-21 c10 -19 20 -20 143 -20 l132 0 -3 104 c-2 64 1 112 7 125 15 27 52 27 76
1 10 -11 21 -20 25 -20 4 0 17 23 30 50 13 28 28 49 34 47 7 -2 13 -53 16
-128 5 -122 15 -161 44 -172 8 -3 99 -6 203 -7 l188 0 -3 113 c-3 103 -2 114
17 131 17 16 23 17 36 6 13 -11 16 -34 13 -132 l-3 -118 70 0 70 0 -10 151
c-9 140 -12 152 -34 170 -34 28 -75 24 -114 -11 -41 -36 -45 -36 -49 -7 -3 20
-9 22 -63 25 l-60 3 3 -138 c2 -78 -1 -149 -7 -163 -7 -19 -10 14 -10 127 -1
153 -5 183 -23 183 -6 0 -37 -12 -70 -27 -41 -18 -56 -29 -48 -37 6 -6 10 -63
10 -140 l0 -130 -22 22 c-21 21 -23 33 -26 152 -3 125 -3 130 17 130 28 0 36
18 9 22 -20 3 -23 10 -26 51 -3 52 -10 57 -37 27z m-537 -262 c3 -68 -11 -98
-43 -98 -26 0 -48 47 -42 88 6 38 49 86 71 79 6 -2 12 -31 14 -69z"/>
<path d="M2336 2310 c-64 -20 -88 -72 -62 -134 22 -53 77 -75 184 -76 65 0 82
-3 82 -14 0 -22 -40 -46 -76 -46 -17 0 -59 15 -94 32 l-62 32 -19 -23 c-10
-13 -19 -36 -19 -52 0 -25 5 -30 42 -40 23 -6 76 -9 116 -7 69 3 76 6 103 36
21 23 29 43 29 70 0 69 -38 100 -158 127 -74 17 -96 32 -86 58 14 37 64 27
122 -24 50 -44 80 -54 104 -32 28 25 20 65 -16 82 -36 17 -150 24 -190 11z"/>
<path d="M3284 2301 c-124 -56 -137 -229 -22 -302 45 -28 140 -23 186 10 49
35 75 93 70 158 -6 66 -29 100 -88 131 -53 27 -92 28 -146 3z m95 -51 c35 -63
43 -203 13 -240 -17 -21 -22 -23 -37 -10 -39 33 -59 92 -59 181 -1 127 35 157
83 69z"/>
<path d="M3770 2309 c-28 -11 -60 -38 -60 -50 0 -5 13 -15 29 -23 53 -28 74
-109 48 -185 -16 -47 -31 -48 -50 -4 -25 56 -69 232 -63 249 4 11 -10 14 -75
14 -76 0 -79 -1 -69 -20 5 -10 26 -74 46 -142 48 -168 48 -168 134 -168 44 0
72 4 77 13 4 6 26 68 49 137 29 85 44 119 49 108 4 -10 6 -72 4 -138 l-4 -120
69 0 c58 0 67 2 62 16 -3 9 -6 85 -6 170 0 175 4 169 -85 130 -30 -14 -55 -21
-55 -16 0 17 -32 40 -53 39 -12 0 -33 -5 -47 -10z"/>
<path d="M4114 2301 c-108 -49 -123 -215 -27 -288 82 -63 233 -30 233 50 0 13
-5 13 -28 5 -16 -6 -44 -8 -64 -4 -40 7 -102 46 -100 61 1 6 32 10 70 11 81 0
109 9 117 36 7 19 8 18 25 -9 26 -43 84 -63 180 -63 63 0 80 -3 80 -14 0 -22
-40 -46 -76 -46 -17 0 -59 15 -94 32 l-62 32 -19 -23 c-10 -13 -19 -36 -19
-52 0 -25 5 -30 42 -40 23 -6 76 -9 116 -7 69 3 76 6 103 36 21 23 29 43 29
70 0 69 -38 100 -158 127 -74 17 -96 32 -86 58 14 37 64 27 122 -24 50 -44 80
-54 104 -32 28 25 20 64 -17 83 -45 22 -183 20 -219 -4 -16 -10 -31 -27 -33
-37 -7 -26 -17 -24 -33 6 -28 52 -113 69 -186 36z m87 -60 c48 -48 36 -73 -39
-85 -37 -5 -46 -3 -67 18 -29 29 -32 52 -8 78 26 29 79 24 114 -11z"/>
</g>
</svg>
