<?xml version="1.0" standalone="no"?>
<!DOCTYPE svg PUBLIC "-//W3C//DTD SVG 20010904//EN"
 "http://www.w3.org/TR/2001/REC-SVG-20010904/DTD/svg10.dtd">
<svg version="1.0" xmlns="http://www.w3.org/2000/svg"
 width="500.000000pt" height="500.000000pt" viewBox="0 0 500.000000 500.000000"
 preserveAspectRatio="xMidYMid meet">

<g transform="translate(0.000000,500.000000) scale(0.100000,-0.100000)"
fill="#000000" stroke="none">
<path d="M1343 3222 c-111 -40 -200 -128 -228 -227 -18 -62 -48 -79 -74 -42
-55 79 -139 121 -241 121 -91 0 -149 -23 -210 -84 -120 -120 -113 -316 17
-430 25 -22 63 -45 84 -52 27 -8 39 -17 39 -30 0 -23 -42 -24 -93 -3 -20 8
-47 15 -61 15 l-25 0 36 -80 c35 -77 57 -97 69 -65 4 9 19 15 40 15 l34 0 0
-180 0 -180 515 0 515 0 0 305 0 305 -36 0 -36 0 32 37 c18 20 45 62 59 93 22
47 26 69 26 145 0 76 -5 99 -27 147 -34 72 -103 142 -174 175 -75 34 -189 41
-261 15z m185 -166 c91 -48 128 -157 82 -245 -65 -129 -244 -133 -321 -7 -46
75 -13 194 67 242 45 28 129 32 172 10z m-647 -139 c39 -26 69 -79 69 -122 -1
-72 -76 -145 -150 -145 -74 0 -149 73 -150 145 0 78 69 145 150 145 32 0 58
-7 81 -23z m304 -264 l37 -43 -91 0 -91 0 22 45 c16 33 28 45 47 47 30 4 26 6
76 -49z m498 -555 c14 -21 2 -48 -22 -48 -30 0 -45 34 -25 55 18 18 33 16 47
-7z"/>
<path d="M1410 3004 c-11 -12 -10 -18 3 -32 16 -15 18 -15 34 0 13 14 14 20 3
32 -7 9 -16 16 -20 16 -4 0 -13 -7 -20 -16z"/>
<path d="M1497 2947 c-8 -21 8 -39 29 -35 27 5 25 42 -2 46 -12 2 -24 -3 -27
-11z"/>
<path d="M1347 2934 c-4 -4 -7 -16 -7 -26 0 -14 6 -19 23 -16 14 2 22 10 22
23 0 20 -25 32 -38 19z"/>
<path d="M1492 2848 c-15 -18 1 -41 24 -36 23 4 26 41 3 46 -9 1 -21 -3 -27
-10z"/>
<path d="M1387 2834 c-4 -4 -7 -16 -7 -26 0 -14 6 -19 23 -16 14 2 22 10 22
23 0 20 -25 32 -38 19z"/>
<path d="M766 2885 c-3 -9 1 -18 10 -22 19 -7 39 11 30 26 -10 16 -33 13 -40
-4z"/>
<path d="M842 2833 c2 -10 10 -18 18 -18 8 0 16 8 18 18 2 12 -3 17 -18 17
-15 0 -20 -5 -18 -17z"/>
<path d="M712 2813 c2 -10 10 -18 18 -18 8 0 16 8 18 18 2 12 -3 17 -18 17
-15 0 -20 -5 -18 -17z"/>
<path d="M837 2763 c-14 -13 -6 -33 13 -33 13 0 20 7 20 20 0 19 -20 27 -33
13z"/>
<path d="M751 2751 c-15 -10 -8 -41 9 -41 15 0 25 29 14 40 -5 5 -15 5 -23 1z"/>
<path d="M3346 3028 c-21 -29 -20 -51 2 -71 37 -33 92 -11 92 37 0 51 -66 74
-94 34z"/>
<path d="M2185 2830 l0 -200 33 0 c44 0 72 16 72 42 0 11 -16 47 -36 79 -40
66 -65 172 -46 191 21 21 38 -8 82 -137 23 -69 46 -125 51 -125 9 0 25 52 55
172 19 78 37 109 54 92 7 -7 10 -60 8 -163 l-3 -151 55 0 55 0 0 200 0 200
-62 0 c-72 0 -79 -7 -109 -103 -10 -31 -21 -54 -25 -50 -4 5 -14 34 -23 65
-22 77 -35 88 -104 88 l-57 0 0 -200z"/>
<path d="M3786 3014 c-23 -22 -20 -41 10 -69 14 -13 23 -29 19 -34 -3 -6 1
-11 9 -11 23 0 49 57 41 88 -11 43 -50 56 -79 26z"/>
<path d="M3217 2950 c-26 -21 -53 -41 -60 -44 -8 -3 -7 -8 6 -16 14 -9 17 -27
17 -114 0 -94 2 -104 23 -124 22 -21 76 -30 90 -16 3 4 0 13 -8 21 -11 11 -15
41 -15 123 0 105 1 109 23 113 l22 4 -22 8 c-17 5 -23 16 -25 45 l-3 38 -48
-38z"/>
<path d="M2638 2894 c-21 -11 -28 -22 -28 -44 0 -17 3 -30 6 -30 4 0 26 18 50
40 49 45 56 47 79 24 24 -24 15 -44 -27 -59 -101 -34 -151 -113 -107 -169 24
-31 67 -34 111 -8 28 16 30 16 39 0 7 -13 23 -18 57 -18 l47 0 -5 102 c-6 114
-17 139 -66 163 -41 19 -121 19 -156 -1z m122 -137 c0 -63 -17 -92 -47 -83
-53 17 -28 136 29 136 15 0 18 -8 18 -53z"/>
<path d="M2895 2770 l0 -140 55 0 55 0 -3 91 c-4 94 4 119 38 119 10 0 23 -7
30 -15 7 -8 16 -15 20 -15 12 0 43 77 36 89 -13 20 -66 12 -92 -14 -30 -30
-34 -31 -34 -6 0 22 -19 31 -68 31 l-37 0 0 -140z"/>
<path d="M3361 2889 c-36 -16 -41 -22 -31 -34 8 -10 11 -47 8 -120 l-3 -105
55 0 55 0 -3 140 c-3 158 -1 155 -81 119z"/>
<path d="M3475 2770 l0 -140 53 0 52 0 0 100 c0 87 2 101 19 109 33 18 43 -8
39 -113 l-3 -96 55 0 55 0 -5 126 c-4 109 -8 127 -24 140 -31 22 -74 17 -103
-12 -14 -14 -26 -24 -28 -22 -1 2 -8 13 -14 26 -9 17 -20 22 -54 22 l-42 0 0
-140z"/>
<path d="M3950 2903 c-30 -11 -60 -47 -60 -73 0 -63 61 -100 165 -100 50 0 65
-3 65 -15 0 -19 -31 -35 -67 -35 -15 0 -49 11 -75 25 -26 14 -49 25 -52 25 -7
0 -36 -56 -36 -69 0 -14 66 -31 123 -31 86 0 136 46 122 111 -10 45 -39 62
-153 90 -48 11 -64 35 -38 55 22 16 39 10 95 -33 50 -38 76 -42 91 -14 16 31
12 41 -25 57 -33 14 -125 18 -155 7z"/>
<path d="M2000 2584 c-81 -51 -88 -54 -152 -54 l-68 0 0 -125 c0 -69 -1 -128
-2 -132 -2 -5 30 -9 70 -11 67 -3 79 -7 155 -52 45 -28 85 -50 90 -50 4 0 7
108 7 240 0 132 -3 240 -7 239 -5 0 -46 -25 -93 -55z"/>
<path d="M3366 2484 c-23 -22 -20 -71 3 -84 46 -24 84 -3 84 47 0 46 -55 69
-87 37z"/>
<path d="M2315 2280 l0 -200 42 0 c47 0 76 21 66 48 -4 9 -24 50 -45 90 -30
58 -38 84 -38 127 0 30 4 56 9 60 14 8 29 -24 76 -154 22 -62 44 -114 50 -115
5 0 25 55 43 124 33 125 55 170 67 138 3 -8 5 -83 3 -167 l-3 -151 55 0 55 0
0 200 0 200 -56 0 c-30 0 -62 -6 -71 -12 -9 -7 -26 -43 -38 -80 -12 -38 -23
-68 -26 -68 -2 0 -13 32 -25 70 -12 42 -29 74 -39 80 -10 6 -43 10 -72 10
l-53 0 0 -200z"/>
<path d="M2805 2341 c-49 -30 -68 -58 -73 -109 -5 -59 15 -105 61 -132 92 -57
210 14 210 125 0 103 -113 169 -198 116z m82 -30 c39 -57 43 -204 6 -218 -56
-22 -109 186 -62 243 16 20 30 14 56 -25z"/>
<path d="M3035 2343 c4 -10 22 -66 40 -125 18 -59 38 -115 45 -123 10 -12 28
-15 69 -13 l55 3 23 60 c40 101 56 172 43 195 -13 24 -49 26 -90 5 -35 -18
-39 -41 -10 -50 48 -15 67 -142 27 -183 -15 -14 -18 -13 -31 19 -8 19 -25 78
-38 131 l-23 98 -59 0 c-52 0 -57 -2 -51 -17z"/>
<path d="M3387 2342 l-38 -17 -2 -123 -2 -122 59 0 c49 0 57 3 52 16 -3 9 -6
72 -6 140 0 137 1 135 -63 106z"/>
<path d="M3553 2340 c-87 -52 -83 -198 6 -245 62 -31 146 -12 169 40 11 25 11
27 -5 20 -39 -16 -60 -15 -103 7 -66 34 -63 48 10 48 80 0 100 11 100 56 0 53
-44 94 -102 94 -25 0 -56 -8 -75 -20z m94 -56 c12 -19 13 -27 3 -38 -15 -19
-63 -30 -90 -21 -24 8 -42 47 -33 71 15 40 91 32 120 -12z"/>
<path d="M3793 2340 c-27 -16 -33 -26 -33 -56 0 -19 4 -43 10 -53 15 -29 84
-51 155 -51 67 0 77 -7 49 -34 -23 -23 -74 -20 -130 9 -27 14 -52 25 -55 25
-8 0 -29 -47 -29 -65 0 -20 75 -38 137 -33 69 6 103 36 103 89 0 48 -38 82
-112 99 -66 15 -99 35 -92 55 10 26 59 17 105 -20 24 -19 51 -35 60 -35 20 0
39 20 39 43 0 45 -147 64 -207 27z"/>
</g>
</svg>
